PathFileType	4	(X/Y/Z)	D:\TRACE\spotREDO_2-26-24\spot_justBody_Motion_1_1-v60.trc
DataRate	CameraRate	NumFrames	NumMarkers	Units	OrigDataRate	OrigDataStartFrame	OrigNumFrames
100.00	100.00	      38	9	mm	100.00	2626	      7000
Frame#	Time	front left toe			Front right toe			aft left toe			aft right toe			Arm			FL body			FR body			AL Body			AR Body			
		X1	Y1	Z1	X2	Y2	Z2	X3	Y3	Z3	X4	Y4	Z4	X5	Y5	Z5	X6	Y6	Z6	X7	Y7	Z7	X8	Y8	Z8	X9	Y9	Z9	

2626	26.250	-263.42752	18.95995	-94.05977	205.76712	20.73282	-135.01015	-325.69150	31.94866	376.57632	214.48586	27.63120	301.12128	-48.07959	818.90125	-280.22675	-129.27881	559.14044	-250.32848	26.17657	563.29657	-267.77728	-41.04753	562.48871	629.19391	107.11697	561.77368	615.01715	
2627	26.260	-264.49652	18.98973	-94.23721	205.02635	20.52074	-134.88716	-326.46231	32.06117	376.42670	213.52640	27.83537	301.06854	-48.06898	818.60004	-281.23764	-128.79732	558.72064	-251.05754	26.55854	563.04596	-268.44400	-40.71561	562.84454	628.83691	107.56294	562.28284	614.03772	
2628	26.270	-265.34268	19.12762	-94.51540	203.98358	20.49813	-135.04730	-327.53168	32.53947	376.39594	212.51566	27.91950	301.03629	-47.67327	818.19360	-282.14944	-128.05205	558.20184	-251.82933	27.04515	562.89514	-269.24969	-40.46173	563.15021	627.94440	107.88651	562.48828	613.65039	
2629	26.280	-266.05527	19.15815	-94.54360	203.20093	20.24998	-135.15390	-328.23956	32.81227	376.15088	211.88451	27.93973	300.94586	-47.15467	817.86383	-283.02420	-127.75086	557.88306	-252.19986	27.54436	562.37817	-269.94958	-39.93854	563.33746	627.29700	108.09148	562.96539	613.00372	
2630	26.290	-267.00070	19.11409	-94.66391	202.03508	19.99167	-135.27263	-329.07135	33.05317	375.79498	211.05182	27.87220	300.82608	-46.78256	817.45734	-283.91534	-127.25092	557.47638	-253.29257	27.95529	561.91486	-270.58853	-39.41476	563.52008	626.54370	108.34676	563.15015	612.07123	
2631	26.300	-267.84363	19.00541	-94.89272	201.31560	19.75071	-135.27324	-330.29941	33.45441	375.58356	210.03917	28.01010	300.70917	-46.66354	817.15900	-284.83282	-126.84472	557.11121	-254.07309	28.55334	561.59064	-271.32050	-39.13170	563.68188	625.62231	108.94926	563.43683	611.39557	
2632	26.310	-268.84384	18.99959	-94.93445	200.70258	19.59304	-135.36201	-330.92474	33.62463	375.48331	209.17288	28.22595	300.72818	-46.28563	816.80963	-285.69290	-126.55707	556.67828	-254.61214	28.78620	561.53870	-272.35562	-38.69437	563.87012	625.03302	109.36544	563.68604	610.63586	
2633	26.320	-269.65024	19.16489	-95.01806	199.44920	19.29733	-135.71461	-331.74878	33.94788	375.48450	208.33949	28.13759	300.66968	-46.05646	816.50067	-286.46521	-126.01545	556.61560	-255.62572	29.16772	561.28400	-272.95132	-36.95352	563.57434	624.11902	109.97030	563.85437	609.72870	
2634	26.330	-270.46503	19.09316	-95.18636	198.62834	19.26146	-135.75203	-332.71304	34.32286	375.31216	207.50854	28.21120	300.73520	-45.62308	816.44794	-287.39474	-126.03972	556.51843	-256.87112	29.68309	561.06714	-273.72299	-36.49619	563.60004	623.23529	110.26585	563.94269	609.08246	
2635	26.340	-271.69617	19.27774	-95.22063	197.74362	19.00698	-135.80070	-333.45590	34.40339	375.01239	206.46388	28.28620	300.50861	-45.64032	816.00739	-288.37750	-125.62766	556.22894	-257.59970	30.13298	560.80786	-274.43909	-35.94619	563.69348	622.61060	110.95264	564.05536	608.19629	
2636	26.350	-272.01996	19.05112	-95.19910	197.01974	18.74365	-135.68602	-334.46332	34.74539	374.81082	205.31007	28.15767	300.32898	-45.10075	815.74030	-289.05795	-125.03093	555.91797	-258.50082	29.86692	560.63855	-275.22781	-35.30730	563.66199	621.57672	111.15679	564.10461	607.06104	
2637	26.360	-273.19498	19.12400	-95.65353	196.05193	18.57549	-135.93083	-335.17233	34.99638	374.83771	204.55600	28.59158	300.08710	-44.49291	815.59235	-289.88315	-124.33289	555.45935	-258.49414	30.77416	560.52637	-276.29880	-34.93354	563.68091	620.86298	111.83207	564.15637	606.60504	
2638	26.370	-274.14252	19.26577	-95.72694	195.29991	18.62039	-136.08705	-335.94302	35.13836	374.78619	203.72401	28.66616	300.21054	-44.57251	815.53503	-291.01297	-123.99782	555.46344	-259.65228	31.17246	560.41272	-277.11172	-34.21893	563.65430	619.86438	112.31682	564.28784	605.47961	
2639	26.380	-275.02426	19.18564	-95.79382	194.37868	18.27274	-136.13956	-337.07889	35.61440	374.42136	202.68620	28.52853	300.19312	-44.23768	815.34644	-291.89630	-123.64310	555.17273	-260.38788	31.62020	560.20319	-277.89386	-33.41034	563.82312	619.26514	112.91496	564.19904	604.74231	
2640	26.390	-275.69513	19.25117	-95.82458	193.47566	18.11967	-136.26620	-337.68866	35.92724	374.17535	202.07465	28.58978	300.16455	-43.76520	815.14172	-292.75015	-123.28144	555.16327	-261.42300	32.11562	560.07904	-278.77081	-33.02171	563.80682	618.30103	113.37515	564.31555	603.74701	
2641	26.400	-276.49060	19.20289	-96.13361	192.69450	18.15091	-136.19688	-338.72363	36.22286	373.99707	201.47993	28.50646	299.97507	-43.48392	815.09003	-293.69333	-122.72752	554.88013	-261.98868	32.34229	560.02313	-279.80649	-33.61383	563.25580	617.22833	113.97483	564.35260	603.00616	
2642	26.410	-277.67987	19.22509	-96.56066	191.53053	17.75692	-136.49117	-339.66528	36.36409	373.91776	200.17442	28.55678	299.86200	-43.15477	814.92627	-294.85580	-122.36315	554.77332	-263.01456	32.91927	559.94879	-280.87515	-32.88737	563.30707	616.15625	114.34198	564.43231	601.77814	
2643	26.420	-278.38815	19.20966	-96.47598	190.76082	17.65421	-136.49445	-340.12091	36.44406	373.97903	200.26093	29.00836	299.82751	-42.45183	814.80511	-295.72549	-122.09208	554.70154	-264.09631	33.38221	559.71826	-281.59320	-32.30105	563.38416	615.34912	114.82997	564.35535	601.11774	
2644	26.430	-279.32248	19.28492	-96.64885	190.03998	17.48627	-136.67207	-341.49808	36.94836	373.70480	198.74123	28.65101	299.62503	-42.17442	814.75189	-296.56766	-121.79202	554.63965	-265.06345	33.57654	559.60406	-282.63849	-32.06355	563.39935	614.30109	115.25676	564.38892	599.88361	
2645	26.440	-280.06100	19.38988	-96.57840	189.09727	17.34837	-136.78137	-342.14716	37.11396	373.57291	197.75296	28.69102	299.70825	-41.90889	814.62018	-298.05338	-120.98969	554.41846	-266.01624	34.28733	559.61310	-283.52042	-31.46966	563.49628	613.37457	115.97308	564.46417	599.13989	
2646	26.450	-280.79886	19.26899	-96.79631	188.47719	17.16982	-136.65498	-342.63901	37.22823	373.37820	196.71225	28.53523	299.53455	-41.18869	814.46313	-298.71402	-120.80261	554.29767	-266.86749	34.60675	559.34912	-284.51990	-30.89481	563.68341	612.21198	116.47322	564.54358	597.78290	
2647	26.460	-281.72925	19.39432	-97.22743	187.64117	17.06453	-136.80141	-343.61771	37.40676	373.23898	196.12390	28.55547	299.35007	-40.51128	814.21381	-299.90338	-120.19939	554.16687	-268.08072	35.23164	559.21655	-285.58466	-30.44788	563.77435	611.39099	116.86805	564.64691	597.02502	
2648	26.470	-282.66531	19.54659	-97.13897	186.63815	16.58542	-137.05667	-344.66998	37.74813	373.11603	195.19472	28.60367	299.28625	-40.49893	814.15265	-301.25076	-119.80427	553.84479	-269.08920	35.47250	558.96582	-286.66626	-30.10776	563.83923	610.09894	117.43047	564.75378	595.80115	
2649	26.480	-283.44397	19.64364	-97.18703	186.20877	16.79073	-137.03990	-345.33902	37.97394	372.86554	194.14825	28.65056	299.21780	-39.79526	813.87909	-302.21494	-119.42249	553.89722	-270.38858	36.14264	558.99640	-287.76108	-29.38017	564.03363	609.05817	117.80838	564.94751	594.85724	
2650	26.490	-284.23770	19.66989	-97.30896	184.80804	16.44025	-137.38354	-346.24997	38.26874	372.55359	193.64206	28.80816	299.14023	-39.36233	813.76215	-303.55014	-118.83206	553.65179	-271.26047	36.61490	558.67218	-288.92178	-29.04517	564.09045	607.94348	118.33303	565.02844	593.60760	
2651	26.500	-284.98572	19.67600	-97.62450	183.89888	16.26435	-137.52504	-347.17258	38.47651	372.40070	192.83357	28.77067	299.17987	-38.73989	813.67639	-304.89267	-118.27359	553.47870	-272.31763	36.74805	558.55127	-289.99030	-28.71431	564.24066	606.86884	118.75793	565.21924	592.56287	
2652	26.510	-285.83820	19.51556	-97.80731	183.70552	16.24817	-137.26538	-347.70563	38.52407	372.37381	191.70203	28.73702	299.10452	-38.13769	813.30597	-305.78006	-117.72962	553.27679	-273.68860	37.64176	558.56238	-291.28738	-28.19968	564.34021	605.59967	119.24934	565.37299	591.26276	
2653	26.520	-286.76147	19.65467	-97.71141	182.54074	15.96576	-137.58154	-348.51611	38.67463	372.32477	191.26485	28.84746	299.03693	-38.00040	813.33789	-307.39581	-117.42478	553.12915	-274.88162	38.06132	558.13116	-292.41748	-27.60705	564.53558	604.53845	119.62255	565.54456	590.25555	
2654	26.530	-287.40665	19.58752	-97.90354	181.68237	15.51199	-137.80408	-349.51776	38.92696	372.10458	190.43266	28.71857	298.90604	-37.25502	812.91870	-308.57129	-116.48674	552.70959	-275.88968	38.73014	557.96570	-293.62189	-27.11110	564.79767	603.11395	120.90087	565.86365	589.29730	
2655	26.540	-288.15323	19.79680	-97.98727	180.14651	14.35559	-139.28836	-350.09323	39.05064	372.02036	189.64024	28.64822	298.85403	-36.84336	812.78406	-310.13751	-116.27659	552.64636	-277.37640	39.26024	557.90393	-294.90109	-26.67311	564.88879	601.95233	120.96563	565.90253	587.58289	
2656	26.550	-288.93774	19.75418	-98.30804	180.25052	15.09968	-138.06807	-350.93359	39.33793	371.72293	188.90028	28.87948	298.77130	-36.34671	812.62396	-311.50092	-115.59460	552.50940	-278.71054	39.79679	557.60840	-296.25449	-25.97172	565.10809	600.72211	121.14788	566.17847	586.16534	
2657	26.560	-289.78653	19.72288	-98.46118	179.48672	15.22397	-137.91467	-351.83630	39.50413	371.61450	188.34305	28.52195	298.97668	-35.83232	812.39624	-312.83463	-114.99615	552.27869	-279.76208	40.35424	557.48810	-297.60016	-25.41086	565.25336	599.22180	122.11916	566.35376	585.08990	
2658	26.570	-290.74619	19.81338	-98.47999	178.72646	15.30681	-137.79791	-352.46054	39.60983	371.62585	187.51590	28.66834	298.93762	-35.14426	812.19281	-314.36530	-114.31949	552.07495	-281.44962	40.93294	557.28632	-298.97150	-24.94151	565.48975	597.79767	122.66618	566.47119	583.52826	
2659	26.580	-291.47333	19.73900	-98.58435	177.49812	15.19178	-138.19287	-353.50412	39.96694	371.31982	186.57462	28.64796	298.79086	-34.47068	811.84784	-315.94550	-114.25268	552.13928	-283.59363	41.54696	556.94769	-300.53848	-24.23349	565.82996	596.31091	123.13187	566.72241	582.03278	
2660	26.590	-292.08206	19.19616	-99.19094	177.07263	14.93374	-138.32719	-352.59601	43.37323	371.28268	186.22179	28.11568	298.30588	-33.76629	811.66254	-317.81461	-112.92646	551.76031	-284.59796	42.39219	556.87219	-302.06525	-23.97219	565.17688	594.82300	123.51447	566.90356	580.61017	
2661	26.600	-292.58087	19.26814	-99.56445	176.77037	14.83540	-138.35678	-352.18845	52.43629	375.32043	186.06560	27.93017	298.18631	-33.36029	811.88391	-319.32895	-111.48634	551.51166	-286.39117	43.59249	557.58472	-303.64282	-24.77332	564.32806	593.03741	123.50728	566.32147	579.02478	
2662	26.610	-292.61075	19.67846	-100.46966	176.46873	14.97576	-138.38228	-348.09857	62.02715	380.73346	184.71938	27.83462	298.24200	-32.99778	811.97192	-320.71164	-110.62009	551.63055	-288.21231	44.79992	557.92419	-305.26257	-25.71028	564.20935	591.55475	123.35333	565.94617	577.38361	
2663	26.620	-293.14807	19.83380	-100.76914	175.54570	14.59179	-138.40321	-346.72485	73.77146	383.26718	183.97108	28.00696	298.35803	-32.31337	812.24390	-322.01260	-109.71642	551.11188	-289.82611	45.67036	557.58521	-306.88699	-25.22710	563.08459	588.62036	123.44107	566.51550	575.95410	
